HIERARCHY
ROOT Pelvis
{
	OFFSET 0.000000 0.000000 0.000000
	CHANNELS 6 Xposition Yposition Zposition Xrotation Yrotation Zrotation
	JOINT LeftUpLeg_virtual
	{
		OFFSET 0.000000 0.000000 0.000000
		CHANNELS 3 Xrotation Yrotation Zrotation
		JOINT LeftUpLeg
		{
			OFFSET 18.735201 -5.666702 -4.541200
			CHANNELS 3 Xrotation Yrotation Zrotation
			JOINT LeftLeg
			{
				OFFSET -0.021200 -31.938179 0.493100
				CHANNELS 3 Xrotation Yrotation Zrotation
				JOINT LeftFoot
				{
					OFFSET 0.021200 -31.938179 -4.336299
					CHANNELS 3 Xrotation Yrotation Zrotation
					JOINT LeftToeBase
					{
						OFFSET 0.943001 -26.722000 15.023500
						CHANNELS 3 Xrotation Yrotation Zrotation
						End Site
						{
							OFFSET 0 0 0
						}
					}
				}
			}
		}
	}
	JOINT RightUpLeg_virtual
	{
		OFFSET 0.000000 0.000000 0.000000
		CHANNELS 3 Xrotation Yrotation Zrotation
		JOINT RightUpLeg
		{
			OFFSET -18.735201 -5.666702 -4.541200
			CHANNELS 3 Xrotation Yrotation Zrotation
			JOINT RightLeg
			{
				OFFSET 0.018946 -31.938133 0.493100
				CHANNELS 3 Xrotation Yrotation Zrotation
				JOINT RightFoot
				{
					OFFSET -0.018946 -31.938126 -4.336299
					CHANNELS 3 Xrotation Yrotation Zrotation
					JOINT RightToeBase
					{
						OFFSET -0.943001 -26.722004 15.023500
						CHANNELS 3 Xrotation Yrotation Zrotation
						End Site
						{
							OFFSET 0 0 0
						}
					}
				}
			}
		}
	}
	JOINT Hips_virtual
	{
		OFFSET 0.000000 0.000000 0.000000
		CHANNELS 3 Xrotation Yrotation Zrotation
		JOINT Hips
		{
			OFFSET -0.000000 -0.000000 -0.000000
			CHANNELS 3 Xrotation Yrotation Zrotation
			JOINT Spine
			{
				OFFSET 0.000000 10.199997 -0.299500
				CHANNELS 3 Xrotation Yrotation Zrotation
				JOINT Spine1
				{
					OFFSET 0.000000 11.900002 -1.516600
					CHANNELS 3 Xrotation Yrotation Zrotation
					JOINT Spine2
					{
						OFFSET 0.000000 13.600006 -2.842500
						CHANNELS 3 Xrotation Yrotation Zrotation
						JOINT Neck_virtual
						{
							OFFSET 0.000000 0.000000 0.000000
							CHANNELS 3 Xrotation Yrotation Zrotation
							JOINT Neck
							{
								OFFSET 0.000000 9.624100 -2.890100
								CHANNELS 3 Xrotation Yrotation Zrotation
								JOINT Head
								{
									OFFSET 0.000000 14.068802 -1.351900
									CHANNELS 3 Xrotation Yrotation Zrotation
									End Site
									{
										OFFSET 0 0 0
									}
								}
							}
						}
						JOINT LeftShoulder_virtual
						{
							OFFSET 0.000000 0.000000 0.000000
							CHANNELS 3 Xrotation Yrotation Zrotation
							JOINT LeftShoulder
							{
								OFFSET 15.263000 10.923401 -0.547700
								CHANNELS 3 Xrotation Yrotation Zrotation
								JOINT LeftArm
								{
									OFFSET 25.438599 -2.830597 -13.032500
									CHANNELS 3 Xrotation Yrotation Zrotation
									JOINT LeftForeArm
									{
										OFFSET 29.960503 0.000000 0.000000
										CHANNELS 3 Xrotation Yrotation Zrotation
										JOINT LeftHand
										{
											OFFSET 27.849251 0.000000 0.000000
											CHANNELS 3 Xrotation Yrotation Zrotation
											End Site
											{
												OFFSET 0 0 0
											}
										}
									}
								}
							}
						}
						JOINT RightShoulder_virtual
						{
							OFFSET 0.000000 0.000000 0.000000
							CHANNELS 3 Xrotation Yrotation Zrotation
							JOINT RightShoulder
							{
								OFFSET -15.263000 10.923401 -0.547700
								CHANNELS 3 Xrotation Yrotation Zrotation
								JOINT RightArm
								{
									OFFSET -25.438599 -2.830597 -13.032500
									CHANNELS 3 Xrotation Yrotation Zrotation
									JOINT RightForeArm
									{
										OFFSET -29.960503 0.000000 0.000000
										CHANNELS 3 Xrotation Yrotation Zrotation
										JOINT RightHand
										{
											OFFSET -27.849251 0.000000 0.000000
											CHANNELS 3 Xrotation Yrotation Zrotation
											End Site
											{
												OFFSET 0 0 0
											}
										}
									}
								}
							}
						}
					}
				}
			}
		}
	}
}
MOTION
Frames: 5
Frame Time: 0.03333333
-2.681003 80.373810 2.552223 0.000000 0.000000 0.000000 -5.398393 -46.091063 -0.138898 -36.910913 3.269428 21.343897 62.508389 -8.152319 4.188292 -22.911135 -6.711848 -18.589816 0.000000 0.000000 0.000000 -5.398393 -46.091063 -0.138898 -20.977761 -8.980942 -32.624747 63.053820 -6.514524 -7.419387 -31.031981 -9.960295 27.205344 0.000000 0.000000 0.000000 -5.398393 -46.091063 -0.138898 0.000000 0.000003 0.000000 9.462111 7.035676 -1.694600 2.187714 0.989900 -0.915632 0.000000 0.000000 0.000000 2.202829 0.982767 -0.894152 2.650040 3.452606 -0.064175 0.000000 0.000000 0.000000 2.202829 0.982767 -0.894152 1.117177 3.546355 -8.633310 -53.487017 4.935505 -51.502994 -179.999527 -73.641952 -179.999513 0.000000 0.000000 0.000000 2.202829 0.982767 -0.894152 3.036128 13.027198 -5.371408 -48.713736 27.172835 83.457091 -179.999786 74.011698 179.999773 0.000000 0.000000 0.000000 
-2.552719 79.673805 3.505661 0.000000 0.000000 0.000000 -4.840593 -46.752682 0.300927 -37.840228 3.033445 20.950582 65.696461 -7.822496 3.962711 -24.678571 -5.845312 -17.874127 0.000000 0.000000 0.000000 -4.840593 -46.752682 0.300927 -21.915565 -8.458259 -33.987530 64.034280 -4.603433 -7.395368 -31.387082 -10.687374 27.227571 0.000000 0.000000 0.000000 -4.840593 -46.752682 0.300927 0.000000 0.000000 0.000000 9.978215 7.302405 -2.293077 1.916818 1.031763 -0.894297 0.000000 0.000000 0.000000 1.931410 1.024994 -0.876843 2.681632 3.484027 0.051988 0.000000 0.000000 0.000000 1.931410 1.024994 -0.876843 1.110766 3.630402 -8.655380 -52.841769 5.112496 -51.141677 179.999937 -73.431972 179.999964 0.000000 0.000000 0.000000 1.931410 1.024994 -0.876843 3.169171 13.274910 -5.296752 -48.735760 27.444503 83.446183 -179.999213 74.154257 179.999240 0.000000 0.000000 0.000000 
-2.332527 78.583595 4.730556 0.000000 0.000000 0.000000 -4.763241 -47.708376 0.523185 -39.676705 1.929074 21.284594 70.500297 -8.099110 3.629281 -25.386387 -5.255913 -19.377443 0.000000 0.000000 0.000000 -4.763241 -47.708376 0.523185 -23.044751 -7.636455 -35.979534 65.737354 -1.953278 -7.774967 -32.057616 -11.631248 27.439450 0.000000 0.000000 0.000000 -4.763241 -47.708376 0.523185 0.000000 0.000000 0.000000 10.909200 7.544375 -2.529293 1.532800 1.076088 -0.997165 0.000000 0.000000 0.000000 1.549265 1.064466 -0.986855 2.715074 3.545463 0.144784 0.000000 0.000000 0.000000 1.549265 1.064466 -0.986855 1.121901 3.790806 -8.776300 -51.604067 5.785257 -50.502897 -179.999704 -72.464803 -179.999691 0.000000 0.000000 0.000000 1.549265 1.064466 -0.986855 3.247805 13.568183 -5.304377 -48.562088 27.955840 83.361264 179.999991 74.258008 179.999991 0.000000 0.000000 0.000000 
-1.922881 76.960228 6.397388 0.000000 0.000000 0.000000 -5.296347 -48.835385 0.392553 -43.189294 -0.703998 22.317746 77.137247 -9.335290 3.275971 -23.336724 -5.737546 -23.803605 0.000000 0.000000 0.000000 -5.296347 -48.835385 0.392553 -24.106757 -6.420809 -38.788282 68.062466 1.496555 -8.608881 -32.950663 -12.865706 28.073363 0.000000 0.000000 0.000000 -5.296347 -48.835385 0.392553 0.000000 -0.000001 0.000000 12.557058 7.856093 -2.303257 0.995854 1.138758 -1.199802 0.000000 0.000000 0.000000 1.016574 1.114879 -1.201561 2.745545 3.621167 0.222865 0.000000 0.000000 0.000000 1.016574 1.114879 -1.201561 1.177510 3.931809 -9.010046 -49.846318 7.032363 -49.753632 -179.999909 -71.166965 -179.999909 0.000000 0.000000 0.000000 1.016574 1.114879 -1.201561 3.139970 13.746663 -5.470686 -48.025434 28.850518 83.319914 -179.999541 74.486075 179.999554 0.000000 0.000000 0.000000 
-1.281060 74.790131 8.612785 0.000000 0.000000 0.000000 -6.277944 -50.169304 -0.059694 -47.991750 -4.923115 24.181936 83.266146 -11.809011 2.699624 -16.793828 -8.616635 -31.506163 0.000000 0.000000 0.000000 -6.277944 -50.169304 -0.059694 -25.026611 -4.667598 -42.547355 70.612080 5.724436 -9.628431 -33.687248 -14.267090 29.187966 0.000000 0.000000 0.000000 -6.277944 -50.169304 -0.059694 0.000000 0.000001 0.000000 14.499974 8.258991 -1.700849 0.424834 1.216747 -1.428610 0.000000 0.000000 0.000000 0.450690 1.174166 -1.444913 2.708230 3.725162 0.308046 0.000000 0.000000 0.000000 0.450690 1.174166 -1.444913 1.261340 4.095660 -9.344288 -47.712208 8.648731 -48.870369 -179.999786 -69.606267 -179.999773 0.000000 0.000000 0.000000 0.450690 1.174166 -1.444913 2.992453 13.783377 -5.631410 -47.719106 30.227928 83.551334 -179.999650 75.093026 179.999636 0.000000 0.000000 0.000000 
